<svg width="48" height="52" viewBox="0 0 48 52" fill="#3388ff" xmlns="http://www.w3.org/2000/svg">
    <ellipse cx="24" cy="44" rx="14" ry="7" fill="url(#paint0_radial_3_13)" />
    <defs>
        <radialGradient id="paint0_radial_3_13" cx="0" cy="0" r="1" gradientUnits="userSpaceOnUse"
            gradientTransform="translate(24 44) rotate(90) scale(7 14)">
            <stop stop-opacity="0.2" />
            <stop offset="1" stop-opacity="0" />
        </radialGradient>
    </defs>
    <path
        d="M24 4C16.26 4 10 10.26 10 18C10 28.5 24 44 24 44C24 44 38 28.5 38 18C38 10.26 31.74 4 24 4ZM24 23C21.24 23 19 20.76 19 18C19 15.24 21.24 13 24 13C26.76 13 29 15.24 29 18C29 20.76 26.76 23 24 23Z" />
    <path
        d="M24 43.2443C23.9338 43.1682 23.8593 43.0824 23.7772 42.9871C23.3972 42.546 22.8535 41.9033 22.2007 41.099C20.8947 39.4897 19.1541 37.2362 17.4145 34.6579C15.6739 32.0781 13.9405 29.1823 12.6438 26.2878C11.3441 23.3867 10.5 20.5238 10.5 18C10.5 10.5361 16.5361 4.5 24 4.5C31.4639 4.5 37.5 10.5361 37.5 18C37.5 20.5238 36.6559 23.3867 35.3562 26.2878C34.0595 29.1823 32.3261 32.0781 30.5855 34.6579C28.8459 37.2362 27.1053 39.4897 25.7993 41.099C25.1465 41.9033 24.6028 42.546 24.2228 42.9871C24.1407 43.0824 24.0662 43.1682 24 43.2443ZM18.5 18C18.5 21.0361 20.9639 23.5 24 23.5C27.0361 23.5 29.5 21.0361 29.5 18C29.5 14.9639 27.0361 12.5 24 12.5C20.9639 12.5 18.5 14.9639 18.5 18Z"
        stroke="black" stroke-opacity="0.25" />
    <path d="M24 23C21.24 23 19 20.76 19 18C19 15.24 21.24 13 24 13C26.76 13 29 15.24 29 18C29 20.76 26.76 23 24 23Z"
        fill="white" />
</svg>